<?xml version="1.0" encoding="UTF-8" standalone="no"?>
<!-- Created with Inkscape (http://www.inkscape.org/) -->

<svg
   width="15.999999"
   height="16"
   viewBox="0 0 4.2333331 4.2333333"
   version="1.1"
   id="svg5587"
   inkscape:version="1.2.2 (b0a8486541, 2022-12-01)"
   sodipodi:docname="pardus-hotspot-status-off.svg"
   xml:space="preserve"
   xmlns:inkscape="http://www.inkscape.org/namespaces/inkscape"
   xmlns:sodipodi="http://sodipodi.sourceforge.net/DTD/sodipodi-0.dtd"
   xmlns="http://www.w3.org/2000/svg"
   xmlns:svg="http://www.w3.org/2000/svg"><sodipodi:namedview
     id="namedview5589"
     pagecolor="#ffffff"
     bordercolor="#000000"
     borderopacity="0.25"
     inkscape:showpageshadow="2"
     inkscape:pageopacity="0.0"
     inkscape:pagecheckerboard="0"
     inkscape:deskcolor="#d1d1d1"
     inkscape:document-units="px"
     showgrid="false"
     inkscape:zoom="24.013495"
     inkscape:cx="3.6229628"
     inkscape:cy="3.8728223"
     inkscape:window-width="1920"
     inkscape:window-height="1127"
     inkscape:window-x="0"
     inkscape:window-y="0"
     inkscape:window-maximized="1"
     inkscape:current-layer="layer1" /><defs
     id="defs5584" /><g
     inkscape:label="Layer 1"
     inkscape:groupmode="layer"
     id="layer1"
     transform="translate(-65.840962,-190.62083)"><g
       id="g641"
       style="fill:#2e3434;fill-opacity:0.34901962"><g
         id="g173"
         transform="matrix(1.3894159,0,0,1.3894159,-26.463781,-75.0121)"
         style="fill:#2e3434;fill-opacity:0.34901962"><path
           d="m 68.605761,193.84036 c 0.05967,0.1 0.190337,0.13386 0.280826,0.0606 0.194448,-0.15751 0.346604,-0.36272 0.440655,-0.59707 0.120385,-0.29993 0.138979,-0.63107 0.05294,-0.9426 -0.08603,-0.31151 -0.27195,-0.58617 -0.529204,-0.78181 -0.257234,-0.19563 -0.571582,-0.30141 -0.894763,-0.3011 -0.323181,3.1e-4 -0.637326,0.10665 -0.894193,0.30282 -0.256867,0.19613 -0.442254,0.47114 -0.527695,0.78283 -0.08545,0.31167 -0.06621,0.64278 0.05474,0.94247 0.09452,0.23422 0.247061,0.4391 0.441812,0.59623 0.09061,0.0732 0.221229,0.039 0.280703,-0.0611 0.05947,-0.10009 0.02471,-0.2282 -0.06158,-0.30637 -0.117279,-0.10631 -0.209818,-0.2382 -0.269717,-0.38662 -0.08637,-0.21404 -0.100115,-0.45051 -0.0391,-0.67308 0.06102,-0.22258 0.193409,-0.41899 0.376849,-0.55904 0.183438,-0.14006 0.407778,-0.21604 0.638574,-0.21626 0.230795,-2.2e-4 0.455288,0.0753 0.638983,0.21503 0.183718,0.13971 0.316478,0.33586 0.377935,0.55831 0.06143,0.22247 0.04816,0.45895 -0.0378,0.67316 -0.05963,0.14852 -0.151903,0.28066 -0.268977,0.38713 -0.08615,0.0784 -0.120658,0.20651 -0.061,0.3065 z"
           fill="#0f0f0f"
           id="path3192"
           style="fill:#2e3434;fill-opacity:0.34901962;stroke-width:0.21083" /><path
           fill-rule="evenodd"
           clip-rule="evenodd"
           d="m 67.957628,193.38665 c 0.349324,0 0.63249,-0.28315 0.63249,-0.63248 0,-0.34932 -0.283166,-0.63249 -0.63249,-0.63249 -0.349324,0 -0.632491,0.28317 -0.632491,0.63249 0,0.34933 0.283167,0.63248 0.632491,0.63248 z m 0,-0.41944 c -0.117665,0 -0.213044,-0.0953 -0.213044,-0.21304 0,-0.11767 0.09538,-0.21305 0.213044,-0.21305 0.117664,0 0.213043,0.0953 0.213043,0.21305 0,0.11766 -0.09538,0.21304 -0.213043,0.21304 z"
           fill="#0f0f0f"
           id="path3189"
           style="fill:#2e3434;fill-opacity:0.34901962;stroke-width:0.21083" /></g></g></g></svg>
