<svg width="64" height="64" viewBox="0 0 64 64" fill="none" xmlns="http://www.w3.org/2000/svg">
<rect x="5" y="9" width="54" height="50" rx="8" fill="url(#paint0_linear_2689_60611)"/>
<rect x="5" y="5" width="54" height="50" rx="8" fill="url(#paint1_linear_2689_60611)"/>
<rect x="5.7" y="5.7" width="52.6" height="48.6" rx="7.3" stroke="url(#paint2_linear_2689_60611)" stroke-width="1.4" style="mix-blend-mode:soft-light"/>
<g filter="url(#filter0_d_2689_60611)">
<path d="M32 34.8352C34.7587 34.8352 36.995 32.5989 36.995 29.8402C36.995 27.0816 34.7587 24.8452 32 24.8452C29.2413 24.8452 27.005 27.0816 27.005 29.8402C27.005 32.5989 29.2413 34.8352 32 34.8352Z" fill="white"/>
<path d="M40.4935 21.3626C40.309 21.1761 40.0896 21.0277 39.8478 20.9259C39.606 20.8241 39.3465 20.771 39.0842 20.7695C38.8218 20.768 38.5618 20.8182 38.3188 20.9172C38.0759 21.0163 37.8548 21.1622 37.6683 21.3466C37.2915 21.7191 37.0782 22.2261 37.0752 22.7559C37.0737 23.0182 37.1239 23.2783 37.2229 23.5212C37.3219 23.7642 37.4679 23.9852 37.6523 24.1718C39.1608 25.6983 39.992 27.7103 39.992 29.8401C39.992 31.97 39.1608 33.982 37.6523 35.5084C37.4679 35.695 37.3219 35.9161 37.2229 36.159C37.1239 36.4019 37.0737 36.662 37.0752 36.9243C37.0782 37.4542 37.2915 37.9611 37.6683 38.3336C38.045 38.7061 38.5544 38.9137 39.0842 38.9107C39.3465 38.9093 39.606 38.8561 39.8478 38.7543C40.0896 38.6526 40.309 38.5042 40.4935 38.3176C42.7472 36.0419 43.988 33.0309 43.988 29.8401C43.988 26.6493 42.7472 23.6383 40.4935 21.3626ZM26.3316 21.3466C26.1455 21.1615 25.9245 21.015 25.6815 20.9155C25.4385 20.8161 25.1783 20.7656 24.9157 20.7671C24.6532 20.7686 24.3935 20.822 24.1516 20.9242C23.9098 21.0264 23.6905 21.1754 23.5065 21.3626C21.2527 23.6403 20.012 26.6513 20.012 29.8401C20.012 33.0289 21.2527 36.0399 23.5065 38.3176C23.6904 38.5051 23.9096 38.6543 24.1515 38.7567C24.3934 38.859 24.6531 38.9125 24.9157 38.914C25.1784 38.9154 25.4387 38.8649 25.6817 38.7653C25.9247 38.6657 26.1456 38.519 26.3316 38.3336C26.7083 37.9611 26.9216 37.4541 26.9246 36.9243C26.9276 36.3945 26.7201 35.8852 26.3476 35.5084C24.8391 33.982 24.008 31.968 24.008 29.8401C24.008 27.7123 24.8391 25.6983 26.3476 24.1718C26.5323 23.9854 26.6784 23.7643 26.7775 23.5214C26.8767 23.2784 26.9269 23.0183 26.9255 22.7559C26.924 22.4935 26.8708 22.234 26.7689 21.9921C26.667 21.7503 26.5184 21.531 26.3316 21.3466Z" fill="#BFDFFC"/>
<path d="M46.1159 15.7163C45.9299 15.5313 45.7092 15.3848 45.4666 15.2851C45.2239 15.1854 44.964 15.1344 44.7017 15.1352C44.4393 15.1359 44.1797 15.1883 43.9376 15.2894C43.6955 15.3905 43.4757 15.5383 43.2907 15.7243C43.1057 15.9103 42.9592 16.131 42.8595 16.3736C42.7598 16.6163 42.7089 16.8762 42.7096 17.1385C42.7103 17.4009 42.7628 17.6605 42.8638 17.9026C42.9649 18.1447 43.1127 18.3645 43.2987 18.5495C46.3197 21.5524 47.984 25.5604 47.984 29.8402C47.984 34.1199 46.3197 38.1279 43.2987 41.1308C43.1127 41.3158 42.9649 41.5356 42.8638 41.7777C42.7628 42.0198 42.7103 42.2794 42.7096 42.5418C42.7089 42.8041 42.7598 43.064 42.8595 43.3067C42.9592 43.5494 43.1057 43.77 43.2907 43.956C43.4757 44.142 43.6955 44.2898 43.9376 44.3909C44.1797 44.492 44.4393 44.5444 44.7017 44.5451C44.964 44.5459 45.2239 44.4949 45.4666 44.3952C45.7092 44.2955 45.9299 44.149 46.1159 43.964C49.8981 40.2058 51.98 35.1908 51.98 29.8402C51.98 24.4895 49.8981 19.4745 46.1159 15.7163ZM16.016 29.8402C16.0082 27.7414 16.4184 25.662 17.2228 23.7235C18.0273 21.7849 19.2098 20.026 20.7013 18.5495C20.8926 18.3657 21.0454 18.1456 21.1507 17.9022C21.2561 17.6587 21.3119 17.3967 21.3149 17.1315C21.3179 16.8663 21.2681 16.6031 21.1683 16.3573C21.0686 16.1115 20.9209 15.888 20.7338 15.6999C20.5468 15.5118 20.3242 15.3628 20.0789 15.2617C19.8337 15.1605 19.5708 15.1092 19.3056 15.1108C19.0403 15.1123 18.778 15.1666 18.534 15.2706C18.2899 15.3745 18.069 15.5261 17.8841 15.7163C14.1019 19.4745 12.02 24.4895 12.02 29.8402C12.02 35.1908 14.1019 40.2058 17.8841 43.964C18.0698 44.1497 18.2903 44.2968 18.533 44.3969C18.7757 44.4971 19.0358 44.5482 19.2984 44.5475C19.561 44.5468 19.8208 44.4941 20.0629 44.3926C20.305 44.2911 20.5247 44.1427 20.7093 43.956C21.0828 43.5803 21.2918 43.0716 21.2903 42.5418C21.2888 42.012 21.077 41.5045 20.7013 41.1308C19.2098 39.6543 18.0273 37.8954 17.2228 35.9568C16.4184 34.0183 16.0082 31.939 16.016 29.8402Z" fill="#BFDFFC"/>
</g>
<defs>
<filter id="filter0_d_2689_60611" x="10.94" y="15.1107" width="42.12" height="32.0342" filterUnits="userSpaceOnUse" color-interpolation-filters="sRGB">
<feFlood flood-opacity="0" result="BackgroundImageFix"/>
<feColorMatrix in="SourceAlpha" type="matrix" values="0 0 0 0 0 0 0 0 0 0 0 0 0 0 0 0 0 0 127 0" result="hardAlpha"/>
<feOffset dy="1.5174"/>
<feGaussianBlur stdDeviation="0.54"/>
<feComposite in2="hardAlpha" operator="out"/>
<feColorMatrix type="matrix" values="0 0 0 0 0 0 0 0 0 0.310362 0 0 0 0 0.651085 0 0 0 0.7 0"/>
<feBlend mode="normal" in2="BackgroundImageFix" result="effect1_dropShadow_2689_60611"/>
<feBlend mode="normal" in="SourceGraphic" in2="effect1_dropShadow_2689_60611" result="shape"/>
</filter>
<linearGradient id="paint0_linear_2689_60611" x1="5.13334" y1="58.1673" x2="58.6414" y2="58.1673" gradientUnits="userSpaceOnUse">
<stop stop-color="#3F98F5"/>
<stop offset="0.0414257" stop-color="#86C5FF"/>
<stop offset="0.0815191" stop-color="#3692F3"/>
<stop offset="0.899024" stop-color="#3791F4"/>
<stop offset="0.952865" stop-color="#86C5FF"/>
<stop offset="1" stop-color="#5FADFF"/>
</linearGradient>
<linearGradient id="paint1_linear_2689_60611" x1="32" y1="5" x2="32" y2="55" gradientUnits="userSpaceOnUse">
<stop stop-color="#3BC3FD"/>
<stop offset="1" stop-color="#1A72DB"/>
</linearGradient>
<linearGradient id="paint2_linear_2689_60611" x1="32" y1="1" x2="32" y2="61" gradientUnits="userSpaceOnUse">
<stop stop-color="white" stop-opacity="0.9"/>
<stop offset="1" stop-color="white" stop-opacity="0.1"/>
</linearGradient>
</defs>
</svg>
