<svg xmlns="http://www.w3.org/2000/svg" viewBox="0 0 474.21 440.09"><defs><style>.cls-1{fill:#231f20;}</style></defs><g id="katman_2" data-name="katman 2"><g id="katman_1-2" data-name="katman 1"><path class="cls-1" d="M311.16,179.76a37.89,37.89,0,0,0-7.81-7.27c-2.15-1.35-11.85,1.34-16.69,3.77l-3.5,1.61c-4.85,2.16-9.16,4-9.16,4.31a2.69,2.69,0,0,1-1.08-.27c-.54-.27-5.92-1.61-11.31-2.69l-9.42-2.16c-5.39-1.34-11.31-2.42-13.47-2.69s-11.31,1.35-16.7,2.42l-10.23,2.43c-5.39,1.34-10,2.42-10.5,2.42a17.21,17.21,0,0,0-1.89.54s-4.31-1.88-9.15-4.31l-3.5-1.61C181.9,174.1,175.7,172,173.28,172c-2.42-.27-8.89,5.11-11,7.81a36.67,36.67,0,0,0-5.39,9.15c-.8,2.16,3.5,11.31,6.47,15.62l6.19,9.16c3,4.58,4.58,9.69,3.77,11.58a34,34,0,0,0-3,7.27c-.54,2.15,0,11.85,1.07,17.23l1.89,11.31a59.35,59.35,0,0,0,3.77,13.74c1.08,2.15,45.78,33.66,47.67,35.28s10,2.69,12.92,2.69a53.76,53.76,0,0,0,10-1.08c2.42-.54,45-32.85,47.12-34.2s5.12-11,6.2-16.16L302.81,250a139,139,0,0,0,1.62-14c0-2.15-2.42-8.62-3.5-10.5s.81-7,3.77-11.58l6.19-9.16c3-4.58,7.27-13.46,6.47-15.62A94,94,0,0,0,311.16,179.76Z"/><path class="cls-1" d="M237.1,0C106.36,0,0,104.88,0,233.79v8.27C0,321.52,40.51,394.88,108.37,438.3a11.29,11.29,0,0,0,16.22-4.45L130,423.13a11.24,11.24,0,0,0-3.93-14.5c-57.3-37.1-91.51-99.38-91.51-166.57v-8.27c0-109.88,90.88-199.28,202.59-199.28s202.6,89.4,202.6,199.28v8.27c0,67.2-34.21,129.47-91.52,166.57a11.25,11.25,0,0,0-3.92,14.5l5.35,10.72a11.31,11.31,0,0,0,16.23,4.45c67.86-43.42,108.37-116.78,108.37-196.24v-8.27C474.21,104.88,367.84,0,237.1,0Z"/><path class="cls-1" d="M397.24,235.73v-5.44c0-87.1-71.83-158-160.14-158S77,143.19,77,230.29v5.44c0,52,26,100.68,69.62,130.24a10.39,10.39,0,0,0,15.12-4l4.46-8.91a10.42,10.42,0,0,0-3.36-13.17c-34.55-23.89-55.18-62.84-55.18-104.2v-5.44C107.62,160.09,165.7,103,237.1,103s129.49,57.11,129.49,127.31v5.44c0,41.36-20.63,80.31-55.18,104.2a10.42,10.42,0,0,0-3.36,13.17l4.46,8.91a10.37,10.37,0,0,0,6.67,5.41,10.35,10.35,0,0,0,8.45-1.45C371.22,336.41,397.24,287.72,397.24,235.73Z"/></g></g></svg>