<?xml version="1.0" encoding="UTF-8" standalone="no"?>
<!-- Created with Inkscape (http://www.inkscape.org/) -->

<svg
   width="15.999999"
   height="16"
   viewBox="0 0 4.2333331 4.2333333"
   version="1.1"
   id="svg5587"
   inkscape:version="1.2.2 (b0a8486541, 2022-12-01)"
   sodipodi:docname="pardus-hotspot-status-on.svg"
   xml:space="preserve"
   xmlns:inkscape="http://www.inkscape.org/namespaces/inkscape"
   xmlns:sodipodi="http://sodipodi.sourceforge.net/DTD/sodipodi-0.dtd"
   xmlns="http://www.w3.org/2000/svg"
   xmlns:svg="http://www.w3.org/2000/svg"><sodipodi:namedview
     id="namedview5589"
     pagecolor="#ffffff"
     bordercolor="#000000"
     borderopacity="0.25"
     inkscape:showpageshadow="2"
     inkscape:pageopacity="0.0"
     inkscape:pagecheckerboard="0"
     inkscape:deskcolor="#d1d1d1"
     inkscape:document-units="px"
     showgrid="false"
     inkscape:zoom="32"
     inkscape:cx="9.03125"
     inkscape:cy="9.8125"
     inkscape:window-width="1920"
     inkscape:window-height="1127"
     inkscape:window-x="0"
     inkscape:window-y="0"
     inkscape:window-maximized="1"
     inkscape:current-layer="layer1" /><defs
     id="defs5584" /><g
     inkscape:label="Layer 1"
     inkscape:groupmode="layer"
     id="layer1"
     transform="translate(-65.840962,-190.62083)"><g
       id="g194"
       transform="matrix(1.5714257,0,0,1.5714257,-38.832738,-110.06906)"
       style="fill:#2e3436;fill-opacity:1"><path
         d="m 68.530692,193.69788 c 0.05276,0.0884 0.168292,0.11835 0.2483,0.0536 0.171926,-0.13927 0.306459,-0.32071 0.389617,-0.52792 0.106441,-0.26519 0.122882,-0.55798 0.04681,-0.83342 -0.07607,-0.27543 -0.240452,-0.51828 -0.46791,-0.69126 -0.22744,-0.17297 -0.505379,-0.2665 -0.791128,-0.26623 -0.285749,2.8e-4 -0.563509,0.0943 -0.790625,0.26775 -0.227115,0.17341 -0.39103,0.41657 -0.466575,0.69216 -0.07555,0.27557 -0.05854,0.56833 0.0484,0.83331 0.08357,0.20709 0.218445,0.38824 0.390639,0.52717 0.08012,0.0647 0.195606,0.0345 0.248191,-0.054 0.05258,-0.0885 0.02185,-0.20177 -0.05445,-0.27089 -0.103695,-0.094 -0.185516,-0.21061 -0.238477,-0.34184 -0.07637,-0.18925 -0.08852,-0.39833 -0.03457,-0.59512 0.05395,-0.1968 0.171008,-0.37046 0.333201,-0.49429 0.162192,-0.12384 0.360548,-0.19102 0.564612,-0.19121 0.204064,-2e-4 0.402555,0.0666 0.564974,0.19012 0.162439,0.12353 0.279822,0.29696 0.334161,0.49365 0.05432,0.1967 0.04258,0.40579 -0.03342,0.59519 -0.05272,0.13132 -0.134309,0.24815 -0.237823,0.34229 -0.07617,0.0693 -0.106683,0.18259 -0.05393,0.271 z"
         fill="#0f0f0f"
         id="path3177"
         style="fill:#2e3436;fill-opacity:1;stroke-width:0.186411" /><path
         fill-rule="evenodd"
         clip-rule="evenodd"
         d="m 67.957628,193.29672 c 0.308864,0 0.559233,-0.25036 0.559233,-0.55923 0,-0.30886 -0.250369,-0.55923 -0.559233,-0.55923 -0.308864,0 -0.559233,0.25037 -0.559233,0.55923 0,0.30887 0.250369,0.55923 0.559233,0.55923 z m 0,-0.37086 c -0.104036,0 -0.188368,-0.0843 -0.188368,-0.18837 0,-0.10404 0.08433,-0.18837 0.188368,-0.18837 0.104036,0 0.188368,0.0843 0.188368,0.18837 0,0.10404 -0.08433,0.18837 -0.188368,0.18837 z"
         fill="#0f0f0f"
         id="path3174"
         style="fill:#2e3436;fill-opacity:1;stroke-width:0.186411" /></g></g></svg>
